{
  "accessors": [
    {
      "bufferView": 2,
      "componentType": 5126,
      "count": 381,
      "max": [
        6.878718852996826,
        11.155314445495605,
        6.878718852996826
      ],
      "min": [
        -6.878718852996826,
        -1.8588149547576904,
        -6.878718852996826
      ],
      "type": "VEC3"
    },
    {
      "bufferView": 2,
      "byteOffset": 4572,
      "componentType": 5126,
      "count": 381,
      "max": [
        0.9999078512191772,
        1.0,
        0.9995812177658081
      ],
      "min": [
        -0.9999076128005981,
        -0.6590489149093628,
        -0.9997555017471313
      ],
      "type": "VEC3"
    },
    {
      "bufferView": 3,
      "componentType": 5126,
      "count": 381,
      "max": [
        0.9998770356178284,
        0.7972419857978821,
        0.9992963075637817,
        1.0
      ],
      "min": [
        -0.9995968341827393,
        -0.7095302939414978,
        -0.998129665851593,
        -1.0
      ],
      "type": "VEC4"
    },
    {
      "bufferView": 1,
      "componentType": 5126,
      "count": 381,
      "max": [
        0.9804825186729431,
        0.9887239933013916
      ],
      "min": [
        0.026085160672664642,
        0.01044407021254301
      ],
      "type": "VEC2"
    },
    {
      "bufferView": 1,
      "byteOffset": 3048,
      "componentType": 5126,
      "count": 381,
      "max": [
        0.9804825186729431,
        0.9887239933013916
      ],
      "min": [
        0.026085160672664642,
        0.01044407021254301
      ],
      "type": "VEC2"
    },
    {
      "bufferView": 1,
      "byteOffset": 6096,
      "componentType": 5126,
      "count": 381,
      "max": [
        0.9804825186729431,
        0.9887239933013916
      ],
      "min": [
        0.026085160672664642,
        0.01044407021254301
      ],
      "type": "VEC2"
    },
    {
      "bufferView": 0,
      "componentType": 5125,
      "count": 1272,
      "type": "SCALAR"
    }
  ],
  "asset": {
    "extras": {
      "author": "Carlos Nava (https://sketchfab.com/carlosnavapa)",
      "license": "CC-BY-4.0 (http://creativecommons.org/licenses/by/4.0/)",
      "source": "https://sketchfab.com/3d-models/flower-a719abe202bb4f85b3e0b1fded4a7d3a",
      "title": "Flower"
    },
    "generator": "Sketchfab-13.26.0",
    "version": "2.0"
  },
  "bufferViews": [
    {
      "buffer": 0,
      "byteLength": 5088,
      "name": "floatBufferViews",
      "target": 34963
    },
    {
      "buffer": 0,
      "byteLength": 9144,
      "byteOffset": 5088,
      "byteStride": 8,
      "name": "floatBufferViews",
      "target": 34962
    },
    {
      "buffer": 0,
      "byteLength": 9144,
      "byteOffset": 14232,
      "byteStride": 12,
      "name": "floatBufferViews",
      "target": 34962
    },
    {
      "buffer": 0,
      "byteLength": 6096,
      "byteOffset": 23376,
      "byteStride": 16,
      "name": "floatBufferViews",
      "target": 34962
    }
  ],
  "buffers": [
    {
      "byteLength": 29472,
      "uri": "scene.bin"
    }
  ],
  "images": [
    {
      "uri": "textures/Flower_baseColor.png"
    },
    {
      "uri": "textures/Flower_emissive.png"
    },
    {
      "uri": "textures/Flower_normal.png"
    }
  ],
  "materials": [
    {
      "alphaMode": "BLEND",
      "doubleSided": true,
      "emissiveFactor": [
        1.0,
        1.0,
        1.0
      ],
      "emissiveTexture": {
        "index": 1,
        "texCoord": 1
      },
      "name": "Flower",
      "normalTexture": {
        "index": 2
      },
      "pbrMetallicRoughness": {
        "baseColorTexture": {
          "index": 0
        },
        "metallicFactor": 0.0,
        "roughnessFactor": 0.5
      }
    }
  ],
  "meshes": [
    {
      "name": "Object_0",
      "primitives": [
        {
          "attributes": {
            "NORMAL": 1,
            "POSITION": 0,
            "TANGENT": 2,
            "TEXCOORD_0": 3,
            "TEXCOORD_1": 4,
            "TEXCOORD_2": 5
          },
          "indices": 6,
          "material": 0,
          "mode": 4
        }
      ]
    }
  ],
  "nodes": [
    {
      "children": [
        1
      ],
      "matrix": [
        0.20000000298023224,
        0.0,
        0.0,
        0.0,
        0.0,
        4.440892164675075e-17,
        -0.20000000298023224,
        0.0,
        0.0,
        0.20000000298023224,
        4.440892164675075e-17,
        0.0,
        0.0,
        0.0,
        0.0,
        1.0
      ],
      "name": "Sketchfab_model"
    },
    {
      "children": [
        2
      ],
      "name": "root"
    },
    {
      "children": [
        3
      ],
      "matrix": [
        1.0,
        0.0,
        0.0,
        0.0,
        0.0,
        2.220446049250313e-16,
        1.0,
        0.0,
        0.0,
        -1.0,
        2.220446049250313e-16,
        0.0,
        0.0,
        0.0,
        0.0,
        1.0
      ],
      "name": "GLTF_SceneRootNode"
    },
    {
      "children": [
        4
      ],
      "matrix": [
        -0.14142135690691118,
        0.0,
        -0.14142135978239273,
        0.0,
        0.0,
        0.20000000298023224,
        0.0,
        0.0,
        0.14142135978239273,
        0.0,
        -0.14142135690691118,
        0.0,
        0.0,
        0.0,
        0.0,
        1.0
      ],
      "name": "Flower_2"
    },
    {
      "mesh": 0,
      "name": "Object_4"
    }
  ],
  "samplers": [
    {
      "magFilter": 9729,
      "minFilter": 9987,
      "wrapS": 10497,
      "wrapT": 10497
    }
  ],
  "scene": 0,
  "scenes": [
    {
      "name": "Sketchfab_Scene",
      "nodes": [
        0
      ]
    }
  ],
  "textures": [
    {
      "sampler": 0,
      "source": 0
    },
    {
      "sampler": 0,
      "source": 1
    },
    {
      "sampler": 0,
      "source": 2
    }
  ]
}
